<?xml version="1.0" encoding="utf-8"?>
<!-- Generator: Adobe Illustrator 19.0.1, SVG Export Plug-In . SVG Version: 6.00 Build 0)  -->
<svg version="1.1" id="Слой_1" xmlns="http://www.w3.org/2000/svg" xmlns:xlink="http://www.w3.org/1999/xlink" x="0px" y="0px"
	 viewBox="150.0 300.0 300.0 300.0" xml:space="preserve">
<style type="text/css">
	.st0{fill:#000;stroke:#000;stroke-width:0.2835;stroke-miterlimit:10;}
</style>
<g>
	<g>
		<path class="st0" d="M282.7,437.3c-4.4-5.3-4.7-13.1-4.1-19.6c0.7-7.3,3.1-13.5,6.8-19.8c1.6-2.8,2.9-5.6,3.5-8.8
			c0.1-0.6,0.1-1.7,0.6-2.3c1.2-1.5,3.3,0.4,4.3,1.3c4.7,4,7.2,10.7,9.2,16.3c2.8,8.2,4.4,17.7,2.8,26.4c-0.1,0.7,2.1-1.1,2.2-1.8
			c1.1-8.9-0.5-19.3-4.1-27.4c-3.4-7.5-6.5-13-11.2-16.2c-1.4-0.9-3-1.5-4.4,0c-1.6,1.6-1.2,4.8-2,6.8c-1.5,4-3.7,7.8-5.4,11.7
			c-1.5,3.6-3.3,7.4-3.8,11.3c-1.1,7.5-1.4,16.5,4.9,22.8C282.4,438.6,283.2,437.9,282.7,437.3L282.7,437.3z"/>
	</g>
	<g>
		<path class="st0" d="M299.5,443.6c0-2.1-1.5-3.1-0.6-5.3c0.8-2.2,3.2-3.5,4.9-4.8c3.8-2.7,7.4-5.6,10.6-9
			c4.8-5.2,8.1-11.3,13.4-16.1c5-4.4,11.7-8.7,18.6-8.8c1.1,0,3.2-0.1,4,0.8c1.3,1.4-1.4,3.4-2.3,4.5c-1.1,1.4-2,3-2.8,4.6
			c-3.9,8.1-7.7,17-13.3,24c-3.5,4.4-8.3,9.6-14,10.7c-3.2,0.6-7.1-0.6-10.4-0.7c-2.9-0.2-5.9,0.1-8.6-0.7c-0.7-0.2-0.8,1.2-0.1,1.3
			c2.9,0.3,5.8,0.4,8.7,0.6c3.3,0.2,6.7,1.3,10,0.8c8.1-1.2,11.8-5.3,15.3-9.1c6.8-7.6,9.1-17.3,13.6-26.4c1-2,2-3.7,3.5-5.3
			c2.3-2.6,3-5.2-1.1-6c-4.9-0.9-10.1,1.1-14.3,3.4c-6.6,3.7-11.8,9.2-16.1,15.4c-4.4,6.3-9.7,10.5-15.8,14.9
			c-1.9,1.4-4.6,2.8-5.8,7.3c-0.5,1.7,1.5,1.5,1.5,3.8C298.3,444.4,299.5,444.4,299.5,443.6L299.5,443.6z"/>
	</g>
	<g>
		<path class="st0" d="M277.7,419.7c-12-6.5-9.7-24-16-34.3c-2.9-4.7-7.5-8.4-12.4-10.6c-3.3-1.4-11.4-4.4-12.1-0.1
			c0,0.2,0,0.9,1.1,2.2c8.3,9.6,5.5,22.9,6,34c0.4,8.2,2,15.6,10,21.2c0.6,0.4,4.8,1.7,4.2,1.3c-7.2-5.1-11.1-13.1-11.9-21.9
			c-0.8-8.3,0.4-16.8-1.6-25.1c-0.7-3.1-2-6.1-4.1-8.5c-0.2-0.2-1-1.3-1.1-1.4c-0.8-1.3,0.4-2.4,2.5-2.1c1.4,0.1,2.6,0.6,3.9,1.1
			c2.1,0.8,4.1,1.7,6,2.7c4,2.3,7.3,5.4,9.4,9.5c1.9,3.8,2.8,8.1,3.7,12.3c1.6,7.5,3.6,18.1,11.9,21.7c0.7,0.3,1.6-1.4,1-1.8
			L277.7,419.7z"/>
	</g>
	<g>
		<path class="st0" d="M299.5,394c1.8-7.6,5.7-14.8,8.7-22c1.3-3,1.9-6.2,3-9.2c0.5-1.4,1.2-1.8,2.2-1.5c0.7,0.2,1.3,0.9,1.9,1.4
			c1.2,1.1,2.3,2.3,3.2,3.7c7.6,12.7,8.3,28.4,7,42.7c-0.1,0.7,1.1,0.7,1.1,0c0.8-9,1-18-0.5-27c-1-5.7-3.6-14.8-8.2-19.7
			c-1.2-1.2-3.9-4.4-6.3-3.1c-0.7,0.4-1.5,1-1.7,1.7c-0.9,2.3-1.7,6.5-2.7,8.7c-3.6,8.3-6.6,13.9-8.7,22.7
			C298.3,393.3,299.3,394.7,299.5,394L299.5,394z"/>
	</g>
	<g>
		<path class="st0" d="M344.3,399.4c5-11,13.6-20.2,23.6-26.9c3.9-2.6,8.4-5.6,12.9-6.9c1.9-0.5,4-0.2,4.1,2.2
			c0,2.1-1.5,4.6-2.2,6.5c-2.9,7.7-3,15.9-6.2,23.4c-3.4,7.9-8.5,15.3-14.3,21.6c-8.4,9-18.3,16.8-29.7,21.6
			c-0.7,0.3,6.3-0.2,6.9-0.5c10.8-4.5,15.1-9.1,23.2-17.5c6.6-6.8,11.6-15.7,15.4-24.5c1.7-3.9,2.4-8.2,3.3-12.4
			c1.1-5.1,2.6-9.9,4.4-14.8c1-2.8,2.1-6-1.3-7c-3.7-1.2-9.3,2.6-12.3,4.3c-12.2,7-23,17.4-28.8,30.3
			C343,399.5,344,400.1,344.3,399.4L344.3,399.4z"/>
	</g>
	<g>
		<path class="st0" d="M380.9,387.6c1.9-3,5.3-4.7,8.4-6.2c2.4-1.1,5-2.3,7.5-3.3c1.2-0.5,2-0.6,2.2,0.5c0.2,1.3-0.5,3.4-0.9,4.6
			c-1.1,3.1-2.3,6.2-3.5,9.3c-5.7,14.9-14.7,33.5-29.4,43.3c-0.6,0.4,3.8,0.1,4.4-0.3c15-12.7,19-23.8,24.6-37.3
			c1.4-3.3,2.6-6.6,3.9-9.9c1.1-2.8,2.5-6.5,2.9-9.5c0.5-3.8-3.5-3.7-6.1-2.3c-2.7,1.4-4.8,2.6-7.5,4c-2.8,1.4-5.3,2.8-6.9,5.6
			C380.1,386.8,380.5,388.2,380.9,387.6L380.9,387.6z"/>
	</g>
	<g>
		<path class="st0" d="M329.6,450.7c28.2,1.5,45.9-4.1,54.9-7.8c7.7-3.2,15.2-6.5,20.1-13.3c0.4-0.6-0.8-1.5-1.3-1
			c-5.8,6.3-13.6,10.9-21.5,13.7c-19.6,6.9-42.7,7.6-52.1,8.2C329.1,450.4,328.9,450.7,329.6,450.7L329.6,450.7z"/>
	</g>
	<g>
		<path class="st0" d="M320.2,367.6c2.1-5.8,6.2-11.8,10.5-16.2c2.1-2.1,4.9-3.4,7.1-5.4c1.3-1.2,2.8-2.9,4.6-2.2
			c1.8,0.7,2.1,3.7,2.5,5.4c2,9,0,19-1.7,28c-1.6,8.3-3.7,16.6-7,24.4c-0.3,0.7,2-0.6,2.3-1.2c3-7.2,5.1-13.2,6.7-20.9
			c1.7-8,2.7-17,2.3-25.2c-0.1-3.4-1.2-7.3-2.2-10.5c-0.5-1.6-1.9-2.9-3.7-2.4c-2.4,0.6-4.2,3.2-6,4.7c-2.2,1.8-4.4,3.6-6.5,5.6
			c-4.8,4.7-7.6,9.4-9.6,15C319.1,367.3,320,368.3,320.2,367.6L320.2,367.6z"/>
	</g>
	<g>
		<path class="st0" d="M301.5,384.9c-2.1-10.2-3.7-20.4-7.8-30c-3.5-8.3-10.6-20.2-17.3-20.5c-0.3,0-0.4,0-0.7,0.1
			c-4.4,1.8-5,7.2-6.1,11.2c-1.2,4.3-1.6,8.2-2.6,12.5c-1.9,8.3-2.5,15.9-2.2,24.4c0,0.7,1.2,1.4,1.2,0.7c-0.3-9,0.4-17.7,2.5-26.4
			c1.1-4.5,2.3-8.9,3.6-13.3c0.6-2.3,0.9-4.1,2.4-6c1.8-2.4,5.3-0.3,6,0.4c6.2,5.9,9.8,12.7,13.2,21.4c3.3,8.2,4.8,17.2,6.6,25.7
			C300.6,385.9,301.7,385.6,301.5,384.9L301.5,384.9z"/>
	</g>
	<g>
		<path class="st0" d="M280.5,407.6c-4.1-8.8-8.1-19-14.8-26.3c-3-3.3-6.5-5.9-10.4-8.1c-3.7-2.1-7.1-3.2-12-4.5
			c-4.1-1.1-8.1-2.8-12.1-4.1c-2.6-0.9-6.5-3-9.2-2.6c-2.6,0.4-1.3,4.8-0.7,6.5c1.4,4.6,3,9.8,5.3,14.1c4.4,8.4,10.7,14.6,17.8,20.7
			c0.6,0.5,1.7-1,1.1-1.5c-5.4-4.6-10.8-9.2-14.9-15.1c-2.7-3.9-4.7-8.1-6.3-12.6c-0.6-1.8-1.3-3.7-1.9-5.5c-0.3-1-0.7-2-0.7-3
			c0-1.6,0.4-1.8,1.9-1.6c2.9,0.4,5.6,1.7,8.4,2.5c3.5,1.1,7,2.2,10.6,3.2c8.6,2.4,15.5,6.4,21.6,12.9c6.9,7.3,11.1,16.6,15.3,25.5
			C279.8,408.8,280.8,408.2,280.5,407.6L280.5,407.6z"/>
	</g>
	<g>
		<path class="st0" d="M236.9,394.6c-8.1-5.6-14.1-9.4-23.2-13.4c-3.1-1.4-6.2-2.5-9.5-3.3c-2.7-0.7-5.8-1.8-8.6-1.4
			c-6.8,0.9-2.6,12.4-1.3,15.9c2.7,7.3,6.7,14.9,12.1,20.4c6.5,6.7,13.8,12.9,22.3,16.9c0.7,0.3,2.7-1.1,2-1.4
			c-6.8-3.2-13-8.1-18.5-13.2c-5.3-4.9-9.7-10.1-13.1-16.4c-1.8-3.2-10-20.2-3.2-21.1c2.8-0.4,6.2,0.8,8.9,1.6
			c3.1,0.8,6.1,1.9,9,3.3c8.8,4,16.9,9.3,24.9,14.7c0.6,0.4,0.1-1.3-0.6-1.8L236.9,394.6z"/>
	</g>
	<g>
		<path class="st0" d="M197.3,382.9c1.6,14.7,14.2,27.4,33.4,35.9c2.4,1.1-0.3-0.8-1.1-1.4c-12.2-9.6-30.6-18.9-31.2-34.8
			C198.3,380.2,197.4,380.1,197.3,382.9L197.3,382.9z"/>
	</g>
	<g>
		<path class="st0" d="M281.5,436.5c-6.9,0.4-13.9-0.4-20.4-2.5c-6.7-2.2-13.1-5.5-20.2-6.5c-5.2-0.7-10.6-0.1-14.9,3
			c-1.8,1.3-6.1,4.2-3.7,6.6c1.4,1.4,7.1,2.2,11.2,2.9c3.4,0.6,7.3,1.1,10.7,1.3c8.2,0.4,16.2,1.4,24.3,2.1
			c7.1,0.6,11.5,0.9,17.2,0.5c4.1-0.3,8.7-0.7,12.3-2.7c0.6-0.4-3.4-0.7-4.1-0.4c-7.5,2.6-14.1,2.3-21.7,1.3
			c-8.1-1.1-12.3-0.8-20.4-1.5c-2.4-0.2-8.3-0.3-10.7-0.6c-5.5-0.7-8.4-1.6-12.1-2.8c-1.5-0.5-2.7-0.6-4.2-1.2
			c-0.4-0.1-1.6-0.5-1.1-1.3c0.3-0.6,0.8-1.3,1.4-1.9c4.7-4.4,11.1-5,17.2-3.9c7.1,1.3,13.5,4.7,20.4,6.8c6,1.8,14.4,3.6,20.7,3.2
			c0.7,0-1.4-1.8-2.2-1.8L281.5,436.5z"/>
	</g>
	<g>
		<path class="st0" d="M222.8,433.2c-10.6,9.5,15.7,16.5,20.6,18.7c8,3.5,16,6.5,23.9,6.6c4.7,0.1,12,0,17.3-2.2
			c4.3-1.8,7.2-3.5,11-7.2c1.4-1.4,2.9-3.5,3.9-5.2c0.4-0.6-0.7-2.1-1.1-1.5c-1.1,1.8-2.9,4.1-4.4,5.5c-3.6,3.3-7.1,5.6-11.9,7
			c-6.2,1.8-13,1.5-19.3,0.8c-9.5-1-17.7-6.1-27.2-9.3c-4.5-1.5-16.4-6.3-11.8-12.4C224,433.5,223.3,432.7,222.8,433.2L222.8,433.2z
			"/>
	</g>
	<g>
		<path class="st0" d="M298.9,455.8c5.6,8.7,17.5,14.9,28.1,14.9c6.5,0,7.5-3.4,7.4-7.2c-0.2-6.2-3.1-11.8-7.4-15.7
			c-0.5-0.5-1.4,0.3-0.8,0.8c4.1,3.8,7.4,9.5,6.9,15.4c-0.4,4.4-4.5,5.8-8.5,5.5C315,468.8,306,463.4,298.9,455.8
			C298.4,455.3,298.5,455.2,298.9,455.8L298.9,455.8z"/>
	</g>
	<g>
		<path class="st0" d="M290.6,451.4c0.7,5.9,2.6,11.1,6.2,15.9c4.2,5.6,10.7,9.1,17.4,10.6c5.6,1.3,13,3.2,18.3,0.4
			c3.4-1.8,4.3-3.3,5.3-7c0.8-3.3,1.3-8,0.3-11.3c-0.8-3-3.5-5.5-5.7-7.6c-3.5-3.4-7.4-6.4-11.7-8.7c-0.7-0.3-1.2,0.6-0.6,1
			c4.3,2.3,8.2,5.3,11.7,8.8c2.6,2.6,5.2,5.2,5.4,9.1c0.2,4.5-0.8,11-4.8,13.6c-3.1,2-6,2.4-9.7,2.1c-8.1-0.7-15.7-3.9-21.7-9.7
			c-5.1-4.9-7.7-12-7.8-18.7c0-0.7-2.5,0.4-2.4,1.2L290.6,451.4z"/>
	</g>
	<g>
		<path class="st0" d="M323.3,479.6c11.3,8.7,25.7,14.6,39.5,15.7c4.2,0.3,8.7,0.5,12.8-0.2c2.9-0.5,9-2.5,7.5-6.5
			c-0.3-0.7-1.1-0.7-1.1,0c-0.1,3.9-7.3,4.4-10.1,4.6c-3.1,0.3-6.4,0.3-9.5,0c-13.3-1.3-24.1-5.6-34.7-13.8c-0.6-0.4-3.1,0-2.5,0.4
			L323.3,479.6z"/>
	</g>
	<g>
		<path class="st0" d="M334.3,477.8c7.3,5.3,18.1,10.6,26.9,12c6.9,1.1,13.3,2.8,21.4,0.3c0.7-0.2,0.4-2.6-0.3-2.2
			c-4.5,2.6-14.7,1.1-21.6,0C352.3,486.5,341.8,482,334.3,477.8C333.7,477.5,333.7,477.5,334.3,477.8L334.3,477.8z"/>
	</g>
	<g>
		<path class="st0" d="M352.7,462.4c7.6,2.6,15.5,6.4,20,13.4c3.1,4.6,5.1,9.3,9.4,13.1c0.5,0.5,1.4-0.3,0.8-0.8
			c-4.7-4.2-6.7-10.1-10.7-14.9c-5-6-11.6-9.1-18.9-11.6c-0.7-0.2-2,0.3-1.3,0.5L352.7,462.4z"/>
	</g>
	<g>
		<path class="st0" d="M285.3,473.6c-6.8,8.1-7.4,21.1-0.3,26.1c0.6,0.4,2.5-1.1,1.9-1.3c-5.7-2.5-6.3-11.3-3.8-19.5
			C283.3,478.3,285.6,473,285.3,473.6L285.3,473.6z"/>
	</g>
	<g>
		<path class="st0" d="M285.3,499.9c4.1,3.2,11.8,0.7,15.9-2.9c4-3.5,7.7-8.9,6.7-15.5c-0.1-0.6-0.4-0.3-0.4,0.4
			c0.4,4.8-3.3,10.1-7,13.4c-3.7,3.4-10.9,4.2-15.3,2.6C284.7,497.7,284.6,499.8,285.3,499.9L285.3,499.9z"/>
	</g>
	<g>
		<path class="st0" d="M285.9,465.9c-4.4,4.1-8.6,10.8-9.6,16.7c-1.1,6.4-0.8,16,4.1,20.9c5,4.9,12.6,5.7,18.5,3
			c5.8-2.7,10.2-7.9,12.8-13.7c1.9-4.4,3.4-11.8,0.4-16.1c-0.4-0.6-1.4,0-1,0.6c2.4,3.4,1.5,8.3,0.2,12c-1.8,5.3-5.4,10.1-10.1,13.2
			c-5.6,3.7-12.4,4.8-18.3,0.9c-6.1-4-6.3-13-5.8-19.5c0.5-6,5.1-13.2,9.5-17.2C287.2,466.2,286.4,465.4,285.9,465.9L285.9,465.9z"
			/>
	</g>
	<g>
		<path class="st0" d="M234.5,493.5c3.6-0.3,7.2,0.9,10.8,1.2c10,0.9,19.1-2.4,26.5-9.1c0.5-0.5-8.8,4.6-9.5,4.9
			c-6.4,2.9-13.1,3.1-18.4,2.3c-3.1-0.5-6.1-1.4-9.3-1.1c-0.7,0.1-0.7,1.2,0,1.1L234.5,493.5z"/>
	</g>
	<g>
		<path class="st0" d="M235.2,495.6c3.9,1.6,8,2.9,12.2,3.2c3.9,0.2,8.3-0.3,12.1-1.4c6.9-2.1,13.7-7.9,17.7-13.8
			c0.4-0.6-0.6-1.2-1-0.6c-3.9,5.8-11,11-17.9,12.6c-8.9,2.1-16.3,0-23.5-1.4C234.1,494.1,234.5,495.3,235.2,495.6L235.2,495.6z"/>
	</g>
	<g>
		<path class="st0" d="M235.1,492.6c3-3.7,5.3-8.5,9.3-11.4c4.4-3.2,9.8-5.3,15.1-6.6c0.7-0.2,0.4-1.3-0.3-1.1
			c-5.4,1.3-10.8,3.4-15.3,6.7c-4.1,2.9-6.4,7.7-9.5,11.6C233.8,492.4,234.6,493.2,235.1,492.6L235.1,492.6z"/>
	</g>
	<g>
		<path class="st0" d="M221.6,438.1c-4.9-0.8-9.9-0.7-14.8-0.1c-3.7,0.5-8,1.2-10.8,3.8c-0.5,0.5,0.3,1.3,0.8,0.8
			c2.9-2.7,7.8-3.2,11.6-3.6c4.3-0.4,9.2-0.1,13.5,0.6C222.5,439.7,222.3,438.2,221.6,438.1L221.6,438.1z"/>
	</g>
	<g>
		<path class="st0" d="M196.3,442.4c-1.5,2.5,3.1,4.8,5.1,6c5,3,10.8,5.4,16.1,7.7c11.2,4.9,24.3,9.5,36.7,9.3c0.7,0,4-0.6,3.3-0.6
			c-12,0.3-27.6-5.2-38.4-9.9c-5-2.2-10-4.6-14.7-7.4c-2-1.2-9.8-4.6-5.3-6.5c0.7-0.3-3.5,0.6-3.3,1.3L196.3,442.4z"/>
	</g>
	<g>
		<path class="st0" d="M196.1,441.7c-7.8,5.8,20.3,23.4,23.5,25c16.1,8.1,33.6,10.8,51.4,7.3c7.3-1.4,11.8-3.3,16.4-6.5
			c2.5-1.7,6.1-3.9,6.3-7.3c0.1-0.7-1.2-3.5-1.2-2.8c-0.4,4.2-5.4,7.9-8.1,9.1c-3.7,1.8-7.5,3.4-11.4,4.6
			c-7.5,2.2-15.4,2.9-23.2,2.4c-15.8-1.2-31-7.6-43.3-17.5c-2.1-1.7-11.3-9.8-8.8-13.3C198.1,442.1,196.7,441.2,196.1,441.7
			L196.1,441.7z"/>
	</g>
	<g>
		<path class="st0" d="M223.9,432.1c-6.4-2-13.8-2.9-20.4-2c-4.8,0.6-12.2,1.8-15,6.8c-0.4,0.6,0.8,1.3,1,0.6
			c1.3-4,10.2-5.8,14.8-6.3c6.4-0.7,13.3,0.2,19.4,2C224.3,433.4,224.6,432.3,223.9,432.1L223.9,432.1z"/>
	</g>
	<g>
		<path class="st0" d="M188.3,437.3c0.4,1.3,1.9,1.5,3.1,1.7c2.9,0.5,4.9,0.5,7.8,1.4c0.7,0.2,3.9-0.9,3.2-1.1
			c-1.9-0.6-5.4-0.8-7.9-1c-0.9-0.1-5.2-0.3-4.3-2.5C190.5,435,188.1,436.6,188.3,437.3L188.3,437.3z"/>
	</g>
	<g>
		<path class="st0" d="M188.3,437c-0.7,1.6,0.7,2.4,1.8,3c1.5,0.9,3.7,1.5,5.2,2.9c0.5,0.5,1.4,0,1-0.6c-0.8-1.3-2.2-2-3.5-2.6
			c-0.9-0.5-3.4-1.3-3.3-2.6c0.1-0.7-1.1-0.7-1.1,0L188.3,437z"/>
	</g>
	<g>
		<path class="st0" d="M234.1,492.3c-0.5,1,0.2,2.4,0.9,3.1c0.5,0.5,3.4-0.4,2.6-0.6c-1.8-0.5-2.1-1.2-1.4-2
			c0.5-0.6-1.9-1.2-1.8-0.5H234.1z"/>
	</g>
	<g>
		<path class="st0" d="M325.2,442.4c15-0.2,30.8-1.8,45-7.1c5.8-2.1,11.6-4.3,17.5-6.1c2.5-0.8,4.5-1.5,7.2-1.8
			c1.2-0.1,3-0.1,4.2-0.1c1.2,0,5.6-1,4.3,1.1c-0.4,0.6,1,1.5,1.4,0.9c3.8-5.7-5.4-3.9-7.4-3.8c-4.3,0.1-9.4,1.9-13.5,3.2
			c-5,1.6-10.2,4.1-15.1,5.9c-4.9,1.8-9.9,2.9-14.9,3.8c-9.4,1.7-19,2.6-28.6,2.8C324.5,441.3,324.5,442.4,325.2,442.4L325.2,442.4z
			"/>
	</g>
	<g>
		<path class="st0" d="M404.2,427.7c1.4,2.6-5.9,13.1-7.2,14.7c-3.4,4.2-7.1,7.4-11.8,10c-14.3,8.2-31.8,9-48,6.8
			c-0.7-0.1,0.5,2.3,1.3,2.4c14.5,1.9,28.5,1.2,41.9-4.8c4.3-1.9,8.9-4.3,12.4-7.4c3.9-3.4,8.2-8.4,11-12.8c1.2-2,4.4-8.4,1.4-10.5
			C404.5,425.8,403.6,427.3,404.2,427.7L404.2,427.7z"/>
	</g>
	<g>
		<path class="st0" d="M282.3,438.3c4.7,2.6,9.9,3.9,15.3,2.7c0.7-0.2,0.4-1.3-0.3-1.1c-5,1.2-10-0.1-14.4-2.6
			C282.2,437,281.6,438,282.3,438.3L282.3,438.3z"/>
	</g>
</g>
</svg>
